<svg width="55" height="45" viewBox="0 0 55 45" fill="none" xmlns="http://www.w3.org/2000/svg">
<g clip-path="url(#clip0_154_418)">
<path fill-rule="evenodd" clip-rule="evenodd" d="M54.2804 16.6689L45.1259 1.03145C44.7515 0.393009 44.0597 0 43.3083 0H11.882C11.1531 0 10.4759 0.372424 10.0955 0.982546L0.308713 16.6526C-0.20025 17.4679 -0.06999 18.5208 0.62099 19.1944L25.7896 43.6319C26.6057 44.4248 27.9178 44.4248 28.7356 43.6319L53.9353 19.1618C54.6125 18.5045 54.7531 17.4816 54.2786 16.6698L54.2804 16.6689Z" fill="#E70505"/>
<path fill-rule="evenodd" clip-rule="evenodd" d="M43.365 3.75567C43.0333 3.21446 42.237 2.88129 41.5713 2.88129L13.5139 2.88129C12.8681 2.88129 12.1517 3.1884 11.8146 3.7056L3.79017 16.5575C3.33922 17.2486 3.23699 17.758 3.84921 18.3291L25.9595 39.8683C26.6826 40.5404 27.8451 40.5404 28.5697 39.8683L50.5785 18.4275C51.1785 17.8703 51.1957 17.0488 50.7753 16.3607L43.365 3.75567Z" fill="#132A55"/>
<path fill-rule="evenodd" clip-rule="evenodd" d="M27.7501 7.2525L30.8373 13.0293L37.3081 14.1679C37.7283 14.2417 37.8949 14.753 37.5992 15.0587L33.0354 19.7669L33.9483 26.2472C34.0073 26.668 33.5712 26.984 33.1877 26.7974L27.2805 23.9304L21.3734 26.7974C20.9899 26.9832 20.5529 26.668 20.6127 26.2472L21.5256 19.7669L16.9619 15.0587C16.6653 14.753 16.8328 14.2417 17.2529 14.1679L23.7238 13.0293L26.8109 7.2525C27.011 6.87775 27.5508 6.87775 27.7517 7.2525H27.7501Z" fill="#E5EAEE"/>
</g>
<defs>
<clipPath id="clip0_154_418">
<rect width="54.56" height="44.2266" fill="white"/>
</clipPath>
</defs>
</svg>
